<svg xmlns="http://www.w3.org/2000/svg" xmlns:xlink="http://www.w3.org/1999/xlink" width="27" height="45" viewBox="0 0 27 45">
  <defs>
    <style>
      .cls-1 {
        fill: #fff;
        fill-rule: evenodd;
        filter: url(#filter);
      }
    </style>
    <filter id="filter" x="400" y="5205" width="27" height="45" filterUnits="userSpaceOnUse">
      <feFlood result="flood"/>
      <feComposite result="composite" operator="in" in2="SourceGraphic"/>
      <feBlend result="blend" in2="SourceGraphic"/>
    </filter>
  </defs>
  <path id="phone" class="cls-1" d="M400,5250v-45h27v45H400Zm25.2-43.13H401.8v41.25h23.4v-41.25Zm-9,3.75h-5.4v-1.87h5.4v1.87Zm-2.377,30.83a2.872,2.872,0,1,1-2.755,2.87A2.812,2.812,0,0,1,413.823,5241.45Zm0,3.86a1,1,0,1,0-.955-0.99A0.978,0.978,0,0,0,413.823,5245.31ZM425,5207h1v42h-1v-42Zm1,41v1H401v-1h25Zm-25,1h-1v-43h1v43Zm1-43v-1h24v1H402Zm-1,1v-1h25v1H401Zm0,0h1v41h-1v-41Z" transform="translate(-400 -5205)"/>
</svg>
